<svg width="50" height="50" viewBox="0 0 50 50" fill="none" xmlns="http://www.w3.org/2000/svg">
<path d="M24.9998 45.8334C22.1526 45.8334 19.4616 45.2861 16.9269 44.1917C14.3922 43.0986 12.179 41.6056 10.2873 39.7125C8.39428 37.8209 6.90123 35.6077 5.80817 33.0729C4.71373 30.5382 4.1665 27.8472 4.1665 25C4.1665 22.1181 4.71373 19.4188 5.80817 16.9021C6.90123 14.384 8.39428 12.1792 10.2873 10.2875C12.179 8.39447 14.3922 6.90071 16.9269 5.80627C19.4616 4.71321 22.1526 4.16669 24.9998 4.16669C27.8818 4.16669 30.5811 4.71321 33.0978 5.80627C35.6158 6.90071 37.8207 8.39447 39.7123 10.2875C41.6054 12.1792 43.0984 14.384 44.1915 16.9021C45.2859 19.4188 45.8332 22.1181 45.8332 25V28.0209C45.8332 30.0695 45.1304 31.8139 43.7248 33.2542C42.3179 34.6959 40.5901 35.4167 38.5415 35.4167C37.2915 35.4167 36.1283 35.1389 35.0519 34.5834C33.9755 34.0278 33.0901 33.2986 32.3957 32.3959C31.4582 33.3334 30.3561 34.0716 29.0894 34.6104C27.8214 35.1479 26.4582 35.4167 24.9998 35.4167C22.1179 35.4167 19.6616 34.4007 17.6311 32.3688C15.5991 30.3382 14.5832 27.882 14.5832 25C14.5832 22.1181 15.5991 19.6611 17.6311 17.6292C19.6616 15.5986 22.1179 14.5834 24.9998 14.5834C27.8818 14.5834 30.3387 15.5986 32.3707 17.6292C34.4012 19.6611 35.4165 22.1181 35.4165 25V28.0209C35.4165 29.0278 35.729 29.8174 36.354 30.3896C36.979 30.9632 37.7082 31.25 38.5415 31.25C39.3748 31.25 40.104 30.9632 40.729 30.3896C41.354 29.8174 41.6665 29.0278 41.6665 28.0209V25C41.6665 20.4514 40.0255 16.5361 36.7436 13.2542C33.463 9.97363 29.5485 8.33335 24.9998 8.33335C20.4512 8.33335 16.5359 9.97363 13.254 13.2542C9.97345 16.5361 8.33317 20.4514 8.33317 25C8.33317 29.5486 9.97345 33.4632 13.254 36.7438C16.5359 40.0257 20.4512 41.6667 24.9998 41.6667H35.4165V45.8334H24.9998ZM24.9998 31.25C26.736 31.25 28.2116 30.6424 29.4269 29.4271C30.6422 28.2118 31.2498 26.7361 31.2498 25C31.2498 23.2639 30.6422 21.7882 29.4269 20.5729C28.2116 19.3577 26.736 18.75 24.9998 18.75C23.2637 18.75 21.788 19.3577 20.5728 20.5729C19.3575 21.7882 18.7498 23.2639 18.7498 25C18.7498 26.7361 19.3575 28.2118 20.5728 29.4271C21.788 30.6424 23.2637 31.25 24.9998 31.25Z" fill="black"/>
</svg>
