<svg width="50" height="50" viewBox="0 0 50 50" fill="none" xmlns="http://www.w3.org/2000/svg">
<path d="M16.2498 4.16669H33.7498C40.4165 4.16669 45.8332 9.58335 45.8332 16.25V33.75C45.8332 36.9547 44.5601 40.0282 42.294 42.2942C40.028 44.5603 36.9545 45.8334 33.7498 45.8334H16.2498C9.58317 45.8334 4.1665 40.4167 4.1665 33.75V16.25C4.1665 13.0453 5.43957 9.97188 7.70563 7.70581C9.9717 5.43975 13.0451 4.16669 16.2498 4.16669ZM15.8332 8.33335C13.844 8.33335 11.9364 9.12353 10.5299 10.5301C9.12335 11.9366 8.33317 13.8442 8.33317 15.8334V34.1667C8.33317 38.3125 11.6873 41.6667 15.8332 41.6667H34.1665C36.1556 41.6667 38.0633 40.8765 39.4698 39.47C40.8763 38.0635 41.6665 36.1558 41.6665 34.1667V15.8334C41.6665 11.6875 38.3123 8.33335 34.1665 8.33335H15.8332ZM35.9373 11.4584C36.628 11.4584 37.2904 11.7327 37.7788 12.2211C38.2671 12.7095 38.5415 13.3719 38.5415 14.0625C38.5415 14.7532 38.2671 15.4156 37.7788 15.9039C37.2904 16.3923 36.628 16.6667 35.9373 16.6667C35.2467 16.6667 34.5843 16.3923 34.0959 15.9039C33.6075 15.4156 33.3332 14.7532 33.3332 14.0625C33.3332 13.3719 33.6075 12.7095 34.0959 12.2211C34.5843 11.7327 35.2467 11.4584 35.9373 11.4584ZM24.9998 14.5834C27.7625 14.5834 30.412 15.6808 32.3655 17.6343C34.319 19.5878 35.4165 22.2374 35.4165 25C35.4165 27.7627 34.319 30.4122 32.3655 32.3657C30.412 34.3192 27.7625 35.4167 24.9998 35.4167C22.2372 35.4167 19.5876 34.3192 17.6341 32.3657C15.6806 30.4122 14.5832 27.7627 14.5832 25C14.5832 22.2374 15.6806 19.5878 17.6341 17.6343C19.5876 15.6808 22.2372 14.5834 24.9998 14.5834ZM24.9998 18.75C23.3422 18.75 21.7525 19.4085 20.5804 20.5806C19.4083 21.7527 18.7498 23.3424 18.7498 25C18.7498 26.6576 19.4083 28.2473 20.5804 29.4194C21.7525 30.5915 23.3422 31.25 24.9998 31.25C26.6574 31.25 28.2472 30.5915 29.4193 29.4194C30.5914 28.2473 31.2498 26.6576 31.2498 25C31.2498 23.3424 30.5914 21.7527 29.4193 20.5806C28.2472 19.4085 26.6574 18.75 24.9998 18.75Z" fill="black"/>
</svg>
