<svg width="50" height="50" viewBox="0 0 50 50" fill="none" xmlns="http://www.w3.org/2000/svg">
<path d="M8.4375 43.75C8.09028 43.75 7.72569 43.7417 7.34375 43.725C6.96181 43.7069 6.59722 43.6806 6.25 43.6458V31.4583L16.6667 29.375L22.7083 35.4167C25.3472 33.8194 27.7694 31.9271 29.975 29.7396C32.1792 27.5521 34.0104 25.2083 35.4687 22.7083L29.5312 16.7187L31.4583 6.25H43.6458C43.7153 6.59722 43.75 6.96181 43.75 7.34375V8.4375C43.75 12.9167 42.7514 17.2826 40.7542 21.5354C38.7583 25.7896 36.1194 29.566 32.8375 32.8646C29.5569 36.1632 25.7903 38.8021 21.5375 40.7812C17.2833 42.7604 12.9167 43.75 8.4375 43.75Z" fill="black"/>
</svg>
